<?xml version="1.0" standalone="no"?>
<!DOCTYPE svg PUBLIC "-//W3C//DTD SVG 20010904//EN"
 "http://www.w3.org/TR/2001/REC-SVG-20010904/DTD/svg10.dtd">
<svg version="1.0" xmlns="http://www.w3.org/2000/svg"
 width="127.000000pt" height="234.000000pt" viewBox="0 0 127.000000 234.000000"
 preserveAspectRatio="xMidYMid meet">

<g transform="translate(0.000000,234.000000) scale(0.100000,-0.100000)"
fill="#000000" stroke="none">
<path d="M0 2260 c0 -47 4 -80 10 -80 6 0 10 -9 10 -20 0 -13 7 -20 18 -20 10
0 24 -9 32 -20 8 -12 26 -20 42 -20 15 0 28 -4 28 -10 0 -5 14 -10 30 -10 17
0 30 -4 30 -10 0 -5 9 -10 20 -10 11 0 20 -4 20 -10 0 -5 9 -10 20 -10 11 0
20 -4 20 -10 0 -5 8 -10 18 -10 10 0 24 -9 32 -20 8 -11 22 -20 32 -20 10 0
18 -4 18 -10 0 -5 7 -10 15 -10 19 0 145 -124 145 -143 0 -7 9 -19 20 -27 11
-8 20 -22 20 -32 0 -10 5 -18 10 -18 6 0 10 -7 10 -16 0 -18 23 -44 40 -44 20
0 40 28 40 54 0 14 5 26 10 26 6 0 10 7 10 15 0 19 164 185 183 185 7 0 19 9
27 20 8 11 22 20 32 20 10 0 18 5 18 10 0 6 9 10 20 10 11 0 20 5 20 10 0 6 9
10 20 10 11 0 20 5 20 10 0 6 9 10 20 10 11 0 20 5 20 10 0 6 14 10 30 10 17
0 30 5 30 10 0 6 9 10 20 10 11 0 20 5 20 10 0 6 7 10 16 10 9 0 29 14 45 31
26 28 29 38 29 94 0 35 -3 70 -6 79 -7 18 -64 23 -64 6 0 -5 -9 -10 -20 -10
-11 0 -20 -4 -20 -10 0 -5 -9 -10 -20 -10 -11 0 -20 -4 -20 -10 0 -5 -9 -10
-20 -10 -11 0 -20 -4 -20 -10 0 -5 -13 -10 -30 -10 -16 0 -30 -4 -30 -10 0 -5
-9 -10 -20 -10 -11 0 -20 -4 -20 -10 0 -5 -13 -10 -30 -10 -16 0 -30 5 -30 10
0 6 -13 10 -30 10 -16 0 -30 5 -30 10 0 6 -18 10 -40 10 -22 0 -40 5 -40 10 0
6 -53 10 -140 10 -87 0 -140 -4 -140 -10 0 -5 -18 -10 -40 -10 -22 0 -40 -4
-40 -10 0 -6 -33 -10 -80 -10 -47 0 -80 4 -80 10 0 6 -9 10 -20 10 -11 0 -20
5 -20 10 0 6 -13 10 -30 10 -16 0 -30 5 -30 10 0 6 -9 10 -20 10 -11 0 -20 5
-20 10 0 6 -13 10 -30 10 -16 0 -30 5 -30 10 0 6 -13 10 -30 10 l-30 0 0 -80z
m85 40 c20 -11 42 -20 49 -20 8 0 40 -13 71 -30 48 -25 68 -30 130 -30 41 0
77 5 80 10 3 6 21 10 40 10 19 0 37 5 40 10 4 6 63 10 145 10 82 0 141 -4 145
-10 3 -5 17 -10 30 -10 13 0 27 -4 30 -10 3 -5 17 -10 30 -10 13 0 27 -4 30
-10 12 -19 73 -10 130 20 31 17 63 30 70 30 7 0 39 14 70 30 72 38 85 31 85
-49 0 -47 -4 -61 -22 -77 -31 -26 -65 -44 -83 -44 -8 0 -30 -9 -50 -20 -20
-11 -41 -20 -48 -20 -19 0 -113 -49 -127 -65 -7 -8 -18 -15 -25 -15 -6 0 -20
-9 -30 -20 -10 -11 -23 -20 -29 -20 -23 0 -143 -136 -167 -187 -16 -34 -30
-53 -41 -53 -10 0 -18 6 -18 13 0 8 -9 22 -20 32 -11 10 -20 23 -20 29 0 5
-12 22 -26 37 -15 15 -32 38 -38 51 -6 12 -22 28 -35 34 -12 6 -37 26 -55 43
-31 30 -237 141 -261 141 -17 0 -103 45 -125 65 -16 15 -20 31 -20 87 0 77 6
81 65 48z"/>
<path d="M93 2025 c-7 -8 -13 -21 -13 -30 0 -8 -4 -15 -10 -15 -5 0 -10 -13
-10 -30 0 -16 -4 -30 -10 -30 -6 0 -10 -37 -10 -90 0 -53 4 -90 10 -90 6 0 10
-9 10 -20 0 -11 5 -20 10 -20 6 0 10 -8 10 -18 0 -10 9 -24 20 -32 11 -8 20
-22 20 -32 0 -11 7 -18 18 -18 10 0 24 -9 32 -20 8 -11 22 -20 32 -20 10 0 18
-4 18 -10 0 -5 14 -10 30 -10 17 0 30 -4 30 -10 0 -6 30 -10 70 -10 40 0 70
-4 70 -10 0 -5 9 -10 20 -10 11 0 20 -4 20 -10 0 -5 9 -10 20 -10 11 0 20 -4
20 -10 0 -5 9 -10 20 -10 11 0 20 -4 20 -10 0 -5 8 -10 18 -10 10 0 24 -9 32
-20 15 -21 70 -28 70 -10 0 6 9 10 20 10 11 0 20 5 20 10 0 6 9 10 20 10 11 0
20 5 20 10 0 6 9 10 20 10 11 0 20 5 20 10 0 6 9 10 20 10 11 0 20 5 20 10 0
6 9 10 20 10 11 0 20 5 20 10 0 6 30 10 70 10 40 0 70 4 70 10 0 6 14 10 30
10 17 0 30 5 30 10 0 6 7 10 15 10 9 0 40 25 70 55 30 30 55 61 55 70 0 8 5
15 10 15 6 0 10 14 10 30 0 17 5 30 10 30 6 0 10 33 10 80 0 47 -4 80 -10 80
-5 0 -10 13 -10 28 0 16 -8 34 -20 42 -11 8 -20 22 -20 32 0 23 -45 24 -67 3
-14 -14 -13 -18 6 -34 12 -10 21 -26 21 -35 0 -9 5 -16 10 -16 6 0 10 -37 10
-90 0 -53 -4 -90 -10 -90 -5 0 -10 -9 -10 -20 0 -11 -4 -20 -10 -20 -5 0 -10
-7 -10 -15 0 -20 -45 -65 -65 -65 -8 0 -15 -4 -15 -10 0 -5 -9 -10 -20 -10
-11 0 -20 -4 -20 -10 0 -5 -9 -10 -19 -10 -11 0 -22 -6 -25 -12 -5 -10 -7 -10
-12 0 -3 7 -25 12 -55 12 -27 0 -49 5 -49 10 0 6 -7 10 -16 10 -9 0 -29 14
-44 30 -15 17 -35 30 -44 30 -9 0 -16 8 -16 20 0 11 -3 20 -6 20 -11 0 -34
-29 -34 -44 0 -9 -4 -16 -10 -16 -5 0 -10 -7 -10 -16 0 -15 -23 -44 -34 -44
-3 0 -6 14 -6 30 0 17 -4 30 -10 30 -5 0 -10 7 -10 16 0 8 -7 22 -15 30 -13
14 -20 10 -64 -35 -34 -35 -58 -51 -75 -51 -14 0 -26 -4 -26 -10 0 -6 -30 -10
-70 -10 -40 0 -70 4 -70 10 0 6 -9 10 -20 10 -11 0 -20 5 -20 10 0 6 -7 10
-15 10 -19 0 -65 44 -65 62 0 8 -9 20 -20 28 -18 13 -20 26 -20 112 0 59 4 98
10 98 6 0 10 7 10 16 0 9 9 25 21 35 19 16 20 20 6 34 -19 19 -58 19 -74 0z
m47 -20 c0 -8 -9 -30 -20 -50 -24 -42 -28 -180 -8 -218 26 -45 122 -137 145
-137 12 0 25 -4 28 -10 3 -5 34 -10 69 -10 69 0 136 27 187 76 24 23 31 25 44
14 8 -7 15 -22 15 -34 0 -12 4 -26 9 -31 5 -6 11 -21 13 -35 2 -14 10 -25 18
-25 8 0 16 11 18 25 2 14 8 29 13 35 5 5 9 19 9 31 0 12 7 27 15 34 13 11 20
9 44 -14 37 -36 117 -76 151 -76 14 0 31 -5 37 -11 7 -7 21 -4 47 10 20 12 44
21 54 21 18 0 118 98 140 137 20 38 16 176 -8 218 -22 40 -26 69 -8 63 17 -6
46 -59 47 -85 1 -12 6 -25 11 -28 6 -3 10 -33 10 -65 0 -32 -4 -62 -10 -65 -5
-3 -10 -14 -10 -24 0 -22 -47 -116 -66 -132 -8 -6 -45 -27 -81 -45 -50 -25
-80 -34 -117 -34 -42 0 -72 -10 -173 -61 l-123 -62 -123 62 c-107 53 -129 61
-179 61 -31 0 -60 5 -63 10 -3 6 -14 10 -24 10 -50 0 -127 67 -167 145 -19 39
-24 64 -24 125 0 73 12 113 53 178 11 17 27 15 27 -3z"/>
<path d="M280 1940 c0 -11 -4 -20 -10 -20 -5 0 -10 -9 -10 -20 0 -16 -7 -20
-30 -20 l-30 0 0 -65 c0 -62 2 -68 35 -100 19 -19 41 -35 50 -35 8 0 15 -4 15
-10 0 -6 27 -10 60 -10 33 0 60 4 60 10 0 6 7 10 15 10 20 0 65 45 65 65 0 8
5 15 10 15 6 0 10 11 10 25 0 27 -78 115 -103 115 -7 0 -19 9 -27 20 -8 11
-22 20 -32 20 -10 0 -18 5 -18 10 0 6 -13 10 -30 10 -23 0 -30 -4 -30 -20z
m75 -20 c10 -11 23 -20 29 -20 7 0 36 -24 65 -54 59 -60 59 -65 -3 -133 -26
-29 -36 -33 -81 -33 -64 0 -109 22 -130 62 -19 39 -20 118 -2 118 16 0 67 52
67 68 0 19 35 14 55 -8z"/>
<path d="M940 1950 c0 -5 -8 -10 -18 -10 -10 0 -24 -9 -32 -20 -8 -11 -20 -20
-27 -20 -25 0 -103 -88 -103 -115 0 -14 5 -25 10 -25 6 0 10 -7 10 -15 0 -20
45 -65 65 -65 8 0 15 -4 15 -10 0 -6 27 -10 60 -10 33 0 60 4 60 10 0 6 7 10
15 10 9 0 31 16 50 35 33 32 35 38 35 100 0 63 -1 65 -26 65 -33 0 -54 21 -54
54 0 22 -4 26 -30 26 -16 0 -30 -4 -30 -10z m40 -35 c0 -20 9 -29 40 -42 37
-17 40 -20 40 -59 0 -87 -50 -134 -145 -134 -45 0 -55 4 -81 33 -63 69 -63 73
3 139 86 87 143 113 143 63z"/>
<path d="M123 1515 c-13 -13 -23 -31 -23 -40 0 -8 -4 -15 -10 -15 -5 0 -10
-18 -10 -40 0 -22 -4 -40 -10 -40 -6 0 -10 -47 -10 -120 0 -73 4 -120 10 -120
6 0 10 -13 10 -30 0 -16 5 -30 10 -30 6 0 10 -13 10 -30 0 -16 5 -30 10 -30 6
0 10 -9 10 -20 0 -11 5 -20 10 -20 6 0 10 -9 10 -20 0 -11 5 -20 10 -20 6 0
10 -8 10 -18 0 -10 9 -24 20 -32 11 -8 20 -21 20 -30 0 -9 9 -22 20 -30 11 -8
20 -21 20 -28 0 -8 13 -27 30 -42 17 -15 30 -33 30 -40 0 -7 13 -25 30 -40 16
-15 30 -33 30 -39 0 -10 32 -45 135 -151 14 -14 25 -29 25 -33 0 -4 41 -48 90
-97 50 -49 90 -96 90 -105 0 -8 5 -15 10 -15 6 0 10 -9 10 -20 0 -11 5 -20 10
-20 6 0 10 -13 10 -30 0 -16 5 -30 10 -30 6 0 10 -9 10 -20 0 -11 5 -20 10
-20 6 0 10 -11 10 -25 0 -26 39 -75 60 -75 16 0 60 47 60 65 0 8 5 15 10 15 6
0 10 9 10 20 0 11 5 20 10 20 6 0 10 14 10 30 0 17 5 30 10 30 6 0 10 14 10
30 0 17 5 30 10 30 6 0 10 18 10 40 0 22 5 40 10 40 6 0 10 14 10 30 0 17 5
30 10 30 6 0 10 23 10 50 0 28 5 50 10 50 6 0 10 28 10 65 0 62 -2 68 -35 100
-19 19 -39 35 -46 35 -6 0 -24 14 -39 30 -15 17 -33 30 -39 30 -15 0 -121 106
-121 121 0 6 -14 24 -30 39 -16 15 -30 34 -30 42 0 7 -9 20 -20 28 -11 8 -20
22 -20 32 0 10 -4 18 -10 18 -5 0 -10 9 -10 20 0 11 -4 20 -10 20 -5 0 -10 9
-10 20 0 11 -4 20 -10 20 -5 0 -10 14 -10 30 0 17 -4 30 -10 30 -6 0 -10 38
-10 95 0 88 -2 98 -25 120 -13 14 -31 25 -40 25 -8 0 -15 5 -15 10 0 6 -8 10
-18 10 -10 0 -24 9 -32 20 -8 11 -22 20 -32 20 -10 0 -18 5 -18 10 0 6 -30 10
-70 10 -40 0 -70 4 -70 10 0 6 -13 10 -30 10 -16 0 -30 5 -30 10 0 6 -9 10
-20 10 -11 0 -20 5 -20 10 0 16 -13 11 -37 -15z m52 -15 c10 -11 28 -20 41
-20 13 0 26 -4 29 -10 3 -5 38 -10 77 -10 52 0 76 -4 89 -16 10 -9 47 -31 81
-48 l63 -31 3 -105 c1 -58 7 -109 12 -114 6 -6 10 -17 10 -26 0 -21 47 -115
65 -130 8 -7 15 -18 15 -25 0 -6 9 -20 20 -30 11 -10 20 -23 20 -29 0 -13 211
-226 224 -226 5 0 18 -7 28 -17 10 -9 28 -21 41 -27 18 -10 22 -21 25 -70 2
-32 -2 -64 -7 -69 -6 -6 -11 -30 -11 -53 0 -24 -5 -46 -10 -49 -6 -3 -10 -21
-10 -40 0 -19 -4 -37 -10 -40 -5 -3 -10 -17 -10 -30 0 -13 -4 -27 -10 -30 -5
-3 -10 -19 -10 -35 0 -15 -13 -53 -29 -84 -16 -30 -31 -65 -33 -77 -7 -50 -69
-50 -76 1 -2 12 -12 38 -23 57 -10 18 -19 42 -19 53 0 10 -4 22 -10 25 -5 3
-10 16 -10 27 0 27 -35 73 -135 178 -137 144 -265 288 -265 297 0 5 -13 22
-30 38 -16 16 -30 34 -30 40 0 7 -9 20 -20 30 -11 10 -20 24 -20 30 0 7 -6 18
-14 25 -19 15 -106 190 -106 212 0 9 -4 20 -10 23 -5 3 -10 17 -10 30 0 13 -4
27 -10 30 -13 8 -13 222 0 230 6 3 10 14 10 23 0 19 42 112 51 112 3 0 14 -9
24 -20z"/>
<path d="M1080 1510 c0 -5 -13 -10 -30 -10 -16 0 -30 -4 -30 -10 0 -6 -30 -10
-70 -10 -40 0 -70 -4 -70 -10 0 -5 -9 -10 -20 -10 -11 0 -20 -4 -20 -10 0 -5
-9 -10 -20 -10 -11 0 -20 -4 -20 -10 0 -5 -9 -10 -20 -10 -11 0 -20 -4 -20
-10 0 -5 -9 -10 -20 -10 -11 0 -20 -4 -20 -10 0 -5 -9 -10 -20 -10 -11 0 -20
-4 -20 -10 0 -5 -7 -10 -16 -10 -35 0 -44 -26 -44 -124 0 -57 4 -96 10 -96 6
0 10 -13 10 -30 0 -16 5 -30 10 -30 6 0 10 -9 10 -20 0 -11 5 -20 10 -20 6 0
10 -8 10 -18 0 -10 9 -24 20 -32 11 -8 20 -21 20 -30 0 -9 9 -22 20 -30 11 -8
20 -20 20 -27 0 -17 126 -143 143 -143 7 0 19 -9 27 -20 8 -11 21 -20 30 -20
9 0 22 -9 30 -20 8 -11 22 -20 32 -20 10 0 18 -4 18 -10 0 -5 9 -10 20 -10 11
0 20 -4 20 -10 0 -5 9 -10 20 -10 11 0 20 -4 20 -10 0 -5 14 -10 30 -10 17 0
30 -4 30 -10 0 -5 9 -10 20 -10 17 0 20 7 20 40 0 22 -4 40 -10 40 -5 0 -10
18 -10 40 0 22 -4 40 -10 40 -6 0 -10 63 -10 170 0 107 4 170 10 170 6 0 10
53 10 140 0 87 -4 140 -10 140 -5 0 -10 18 -10 40 0 22 -4 40 -10 40 -5 0 -10
14 -10 30 0 28 -2 30 -40 30 -22 0 -40 -4 -40 -10z m68 -37 c6 -15 12 -44 12
-64 0 -21 5 -41 10 -44 6 -4 10 -57 10 -125 0 -68 -4 -121 -10 -125 -6 -4 -10
-77 -10 -185 0 -108 4 -181 10 -185 6 -3 10 -17 10 -30 0 -13 5 -27 10 -30 13
-8 13 -65 1 -65 -6 0 -13 5 -16 10 -3 6 -14 10 -24 10 -21 0 -78 27 -86 41 -4
5 -25 18 -49 29 -23 10 -49 26 -56 35 -7 8 -17 15 -24 15 -14 0 -176 161 -176
176 0 6 -9 19 -20 29 -11 10 -20 23 -20 30 0 7 -9 20 -20 30 -11 10 -20 26
-20 36 0 10 -9 34 -20 54 -16 28 -20 54 -20 119 0 100 -2 97 147 172 92 47
115 54 165 54 31 0 60 5 63 10 3 6 17 10 30 10 13 0 27 5 30 10 3 6 18 10 33
10 20 0 30 -8 40 -27z"/>
</g>
</svg>
